<svg xmlns="http://www.w3.org/2000/svg" aria-hidden="true" style="position:absolute;width:0;height:0;overflow:hidden"><defs><symbol id="icon-envelope" viewBox="0 0 43 32"><path fill="#2196f3" d="M38.667 0H4C1.794 0 0 1.794 0 4v24c0 2.206 1.794 4 4 4h34.667c2.206 0 4-1.794 4-4V4c0-2.206-1.794-4-4-4zm0 2.667c.181 0 .353.038.511.103L21.334 18.236 3.49 2.77a1.32 1.32 0 0 1 .511-.103h34.667zm0 26.666H4A1.334 1.334 0 0 1 2.667 28V5.587L20.46 21.008a1.335 1.335 0 0 0 1.748 0L40.001 5.587V28c0 .736-.598 1.333-1.333 1.333z" style="fill:var(--color1, #2196f3)"/></symbol><symbol id="icon-home" viewBox="0 0 32 32"><path d="M32 18.451 16 6.031 0 18.451v-5.064L16 .967l16 12.42zM28 18v12h-8v-8h-8v8H4V18l12-9z"/></symbol><symbol id="icon-home2" viewBox="0 0 32 32"><path d="M16 1 0 17l3 3 3-3v13h8v-6h4v6h8V17l3 3 3-3L16 1zm0 13a2 2 0 1 1-.001-3.999A2 2 0 0 1 16 14z"/></symbol><symbol id="icon-home3" viewBox="0 0 32 32"><path d="m32 19-6-6V4h-4v5l-6-6L0 19v1h4v10h10v-6h4v6h10V20h4z"/></symbol><symbol id="icon-books" viewBox="0 0 36 32"><path d="M7 4H1c-.55 0-1 .45-1 1v22c0 .55.45 1 1 1h6c.55 0 1-.45 1-1V5c0-.55-.45-1-1-1zm-1 6H2V8h4v2zM17 4h-6c-.55 0-1 .45-1 1v22c0 .55.45 1 1 1h6c.55 0 1-.45 1-1V5c0-.55-.45-1-1-1zm-1 6h-4V8h4v2z"/><path d="m23.909 5.546-5.358 2.7a1.003 1.003 0 0 0-.443 1.343l8.999 17.861c.247.491.852.691 1.343.443l5.358-2.7c.491-.247.691-.852.443-1.343L25.252 5.989a1.003 1.003 0 0 0-1.343-.443z"/></symbol><symbol id="icon-dribbble" viewBox="0 0 32 32"><path d="M16 32C7.175 32 0 24.825 0 16S7.175 0 16 0s16 7.175 16 16-7.175 16-16 16zm13.494-13.812c-.469-.15-4.231-1.269-8.512-.581 1.788 4.912 2.512 8.912 2.656 9.744 3.063-2.075 5.25-5.356 5.856-9.163zM21.337 28.6c-.206-1.2-.994-5.375-2.913-10.363-.031.012-.063.019-.087.031-7.713 2.688-10.481 8.031-10.725 8.531a13.612 13.612 0 0 0 8.387 2.887c1.894 0 3.7-.387 5.338-1.087zM5.844 25.156c.313-.531 4.063-6.738 11.106-9.019.175-.056.356-.113.538-.162a50.041 50.041 0 0 0-1.106-2.319C9.563 15.7 2.938 15.612 2.338 15.606c-.006.137-.006.275-.006.419 0 3.506 1.331 6.712 3.512 9.131zM2.625 13.219c.612.006 6.244.031 12.637-1.662a86.017 86.017 0 0 0-5.069-7.906C6.368 5.457 3.505 8.982 2.624 13.22zM12.8 2.731a73.225 73.225 0 0 1 5.1 8c4.863-1.819 6.919-4.588 7.163-4.938A13.598 13.598 0 0 0 16 2.349a14.22 14.22 0 0 0-3.2.381zm13.781 4.65c-.288.388-2.581 3.325-7.631 5.388.319.65.625 1.313.906 1.981.1.238.2.469.294.706 4.55-.569 9.069.344 9.519.438a13.628 13.628 0 0 0-3.087-8.512z"/></symbol><symbol id="icon-behance2" viewBox="0 0 32 32"><path d="M12.631 14.019c.406-.294.6-.781.6-1.456 0-.375-.063-.681-.194-.919a1.447 1.447 0 0 0-.544-.556 2.169 2.169 0 0 0-.775-.281 4.764 4.764 0 0 0-.906-.081H7.518v3.737h3.563c.625.006 1.144-.144 1.55-.444zM13.188 17.394c-.463-.35-1.075-.525-1.838-.525H7.519v4.406h3.756c.35 0 .675-.031.988-.1s.594-.175.831-.337c.238-.156.431-.369.575-.637s.213-.619.213-1.038c0-.825-.231-1.413-.694-1.769z"/><path d="M29 0H3C1.35 0 0 1.35 0 3v26c0 1.65 1.35 3 3 3h26c1.65 0 3-1.35 3-3V3c0-1.65-1.35-3-3-3zm-8.025 8.419h6.481V10h-6.481V8.419zm-4.05 13.031a4.122 4.122 0 0 1-1.262 1.45 5.615 5.615 0 0 1-1.819.831 8.047 8.047 0 0 1-2.088.269H4V8.006h7.537c.762 0 1.456.069 2.088.2a4.48 4.48 0 0 1 1.613.662c.444.306.794.713 1.044 1.219.244.5.369 1.131.369 1.875 0 .806-.181 1.475-.55 2.012s-.906.975-1.631 1.319c.988.281 1.713.781 2.194 1.487.488.712.725 1.569.725 2.569.006.819-.15 1.519-.462 2.1zm13.056-2.475h-8.356c0 .913.313 1.781.788 2.25.475.462 1.163.7 2.056.7.644 0 1.194-.163 1.663-.488.462-.325.744-.669.85-1.025h2.8c-.45 1.394-1.131 2.387-2.063 2.988-.919.6-2.044.9-3.35.9-.913 0-1.731-.15-2.469-.438a5.238 5.238 0 0 1-1.869-1.244 5.686 5.686 0 0 1-1.175-1.931 7.106 7.106 0 0 1-.419-2.469c0-.869.144-1.675.425-2.425.288-.75.688-1.4 1.212-1.938a5.845 5.845 0 0 1 1.875-1.294c.725-.313 1.525-.469 2.413-.469.981 0 1.837.188 2.575.575.731.381 1.331.894 1.806 1.537s.806 1.375 1.019 2.2c.206.813.275 1.669.219 2.569z"/><path d="M24.269 14.494c-.506 0-.931.088-1.262.262s-.6.387-.806.637a2.233 2.233 0 0 0-.425.819 3.56 3.56 0 0 0-.144.762h5.175c-.075-.813-.356-1.412-.731-1.831-.387-.425-1.025-.65-1.806-.65z"/></symbol></defs></svg>